<?xml version="1.0" encoding="utf-8"?>
<!-- Generator: Adobe Illustrator 19.2.1, SVG Export Plug-In . SVG Version: 6.00 Build 0)  -->
<svg version="1.1" id="layer" xmlns="http://www.w3.org/2000/svg" xmlns:xlink="http://www.w3.org/1999/xlink" x="0px" y="0px"
	 viewBox="0 220 652 200" style="enable-background:new 0 0 652 652;" xml:space="preserve">
<style type="text/css">
	.st0{fill:#003741;}
	.st1{fill:#F07814;}
	.st2{fill:#E6000F;}
</style>
<path class="st0" d="M144.9,292.1c-10,0-17.3,7.1-17.3,17v26c0,1,0.8,1.8,1.8,1.8h2.2c1,0,1.8-0.8,1.8-1.8v-13.9h23.1v13.9
	c0,1,0.8,1.8,1.8,1.8h2.2c1,0,1.8-0.8,1.8-1.8v-26C162.2,299.1,155.1,292.1,144.9,292.1 M156.5,314.9h-23.1v-5.8
	c0-6.7,4.6-11.2,11.5-11.2c6.9,0,11.6,4.4,11.6,11.2L156.5,314.9z M202.7,302.5c-4-0.1-7.8,1.7-10.3,4.9c-4.7-5.6-13-6.4-18.7-1.8
	c-3,2.5-4.8,6.2-4.8,10.1v19.3c0,1,0.8,1.8,1.8,1.8c0,0,0,0,0,0h2.2c1,0,1.7-0.8,1.7-1.8v-19.3c0-4.1,3.3-7.4,7.4-7.4
	c4.1,0,7.4,3.3,7.4,7.4v19.3c0,1,0.8,1.8,1.8,1.8l0,0h2.2c1,0,1.8-0.8,1.8-1.8c0,0,0,0,0,0v-19.3c0.2-4.1,3.7-7.3,7.8-7
	c3.8,0.2,6.8,3.2,7,7v19.3c0,1,0.8,1.8,1.8,1.8l0,0h2.2c1,0,1.8-0.8,1.8-1.8c0,0,0,0,0,0v-19.3c0.2-7.1-5.3-13-12.3-13.2
	C203.3,302.5,203,302.5,202.7,302.5 M237.4,316.2c-7-1-8.3-2-8.3-3.7c0-0.8,0.3-1.6,0.9-2.2c1.8-1.5,4.1-2.2,6.4-2.1
	c3.1,0,7,0.9,8.3,5.1c0.2,0.8,0.9,1.3,1.7,1.3h2.2c1,0,1.8-0.8,1.8-1.8c0-0.1,0-0.3,0-0.4c-1.4-6.2-6.6-9.8-14-9.8
	c-8.6,0-13.2,5-13.2,10c0.1,7.4,7.9,8.5,13.3,9.3c8.1,1.1,8.8,3.1,8.9,4.9c0.1,1-0.3,2-1,2.7c-2,1.7-4.5,2.6-7.1,2.4
	c-3.2,0-8.8-0.8-10-6c-0.2-0.8-0.9-1.4-1.8-1.4h-2.2c-0.5,0-1,0.2-1.4,0.6c-0.3,0.4-0.5,0.9-0.4,1.5c1.1,6.9,7,10.9,15.7,10.9
	c4.7,0,8.6-1.4,11.2-4c1.8-1.9,2.7-4.4,2.6-7C250.8,318.2,241.8,316.9,237.4,316.2 M269.7,309c1,0,1.8-0.8,1.8-1.8c0,0,0,0,0,0v-2.2
	c0-1-0.8-1.8-1.8-1.8l0,0h-6.3v-4.6c0-1-0.8-1.8-1.8-1.8h-2.2c-1,0-1.8,0.8-1.8,1.8c0,0,0,0,0,0v4.6h-2.3c-1,0-1.8,0.8-1.8,1.8v2.2
	c0,1,0.8,1.8,1.8,1.8l0,0h2.3v15.7c0,4.1,1.3,7.4,3.6,9.6c2,1.8,4.6,2.7,7.2,2.7c0.4,0,0.9,0,1.3-0.1c0.9-0.1,1.6-0.9,1.6-1.8v-2
	c0-1-0.8-1.8-1.8-1.8c0,0-0.1,0-0.1,0c-1.6,0.2-3.3-0.3-4.6-1.3c-1.4-1.3-1.7-3.6-1.7-5.3V309H269.7z M329.1,302.7
	c-3.7-0.5-7.5,0.4-10.6,2.6v-0.2c0-1-0.8-1.8-1.8-1.8l0,0h-2.2c-1,0-1.8,0.8-1.8,1.8c0,0,0,0,0,0v30c0,1,0.8,1.8,1.8,1.8
	c0,0,0,0,0,0h2.2c1,0,1.8-0.8,1.8-1.8c0,0,0,0,0,0V317c-0.1-2.5,0.9-5,2.8-6.7c1.7-1.6,4.3-2.3,7.4-2.1c1,0.1,1.9-0.6,1.9-1.6
	c0-0.1,0-0.1,0-0.2v-2C330.7,303.5,330,302.8,329.1,302.7 M442.6,302.5c-4-0.1-7.8,1.7-10.3,4.9c-4.6-5.7-13-6.5-18.7-1.8
	c-3.1,2.5-4.8,6.2-4.9,10.2v19.3c0,1,0.8,1.8,1.8,1.8l0,0h2.2c1,0,1.8-0.8,1.8-1.8c0,0,0,0,0,0v-19.3c0.2-4.1,3.7-7.3,7.8-7
	c3.8,0.2,6.8,3.2,7,7v19.3c0,1,0.8,1.8,1.8,1.8l0,0h2.2c1,0,1.8-0.8,1.8-1.8c0,0,0,0,0,0v-19.3c0.2-4.1,3.7-7.3,7.8-7
	c3.8,0.2,6.8,3.2,7,7v19.3c0,1,0.8,1.8,1.8,1.8c0,0,0,0,0,0h2.2c1,0,1.8-0.8,1.8-1.8c0,0,0,0,0,0v-19.3c0.2-7.1-5.3-13-12.3-13.2
	C443.2,302.5,442.9,302.5,442.6,302.5 M510.5,292.9h-2.2c-1,0-1.8,0.8-1.8,1.8c0,0,0,0,0,0v26c0,6.8-4.6,11.2-11.5,11.2
	c-7,0-11.5-4.5-11.5-11.2v-26c0-1-0.8-1.8-1.8-1.8h-2.2c-1,0-1.8,0.8-1.8,1.8v26c0,9.8,7.3,17,17.3,17c10,0,17.3-7,17.3-17v-26
	C512.3,293.7,511.5,292.9,510.5,292.9C510.6,292.9,510.5,292.9,510.5,292.9 M558.5,291.8c-4.8,0-9.3,2.3-12,6.3
	c-2.7-3.9-7.2-6.2-12-6.2c-8.2,0-14.9,6.7-14.9,14.9v28.4c0,1,0.8,1.8,1.8,1.8l0,0h2.2c1,0,1.8-0.8,1.8-1.8c0,0,0,0,0,0v-28.4
	c0-5.1,4.1-9.2,9.2-9.2s9.2,4.1,9.2,9.2v28.4c0,0.9,0.7,1.7,1.6,1.8h2.2c1,0,1.8-0.8,1.8-1.8c0,0,0,0,0,0v-28.4
	c0-5.1,4.1-9.2,9.2-9.2s9.2,4.1,9.2,9.2v28.4c0,1,0.8,1.8,1.8,1.8h2.2c1,0,1.8-0.8,1.8-1.8c0,0,0,0,0,0v-28.4
	C573.3,298.5,566.6,291.8,558.5,291.8 M401.5,311.2c-1.5-2.6-3.6-4.8-6.2-6.3c-2.7-1.5-5.7-2.3-8.7-2.3c-3.1,0-6.1,0.8-8.8,2.3
	c-2.6,1.5-4.8,3.7-6.3,6.3c-1.5,2.7-2.3,5.8-2.3,8.9c0,3.1,0.7,6.1,2.2,8.9c1.3,2.6,3.3,4.7,5.7,6.2c2.5,1.5,5.3,2.3,8.2,2.3h0.7
	c2,0,3.9-0.3,5.7-1l0.7-0.2c0.5-0.2,0.9-0.4,1.4-0.7l0.3-0.2c1.4-0.8,2.7-1.9,3.8-3.1v3c0,1,0.8,1.9,1.9,1.9h2.3
	c1,0,1.9-0.8,1.9-1.9c0,0,0,0,0,0v-15.2C403.8,317,403,313.9,401.5,311.2 M396.1,326c-2.9,5.3-9.6,7.3-14.9,4.3
	c-0.1-0.1-0.2-0.1-0.3-0.2c-1.7-1-3-2.4-4-4.2c-1-1.8-1.5-3.9-1.5-5.9c0-2.1,0.5-4.2,1.5-6c0.9-1.7,2.3-3.2,4-4.2
	c5.1-3.1,11.8-1.5,14.9,3.6c0.1,0.2,0.2,0.4,0.3,0.6c1,1.8,1.5,3.9,1.4,6C397.6,322.1,397.1,324.2,396.1,326 M363.3,289.9h-2.1
	c-1,0-1.8,0.8-1.8,1.8c0,0,0,0,0,0V307c-3-2.8-6.9-4.4-11-4.5c-9.2,0-16.8,7.9-16.8,17.6c-0.1,8.8,6.4,16.3,15.2,17.3
	c0.5,0.1,1.1,0.1,1.6,0.1c0.5,0,1.1,0,1.6-0.1c8.5-0.8,15.1-7.9,15.2-16.5v-29.3C365.1,290.8,364.3,289.9,363.3,289.9
	C363.3,289.9,363.3,289.9,363.3,289.9 M337.3,320.2c0-6.5,5-11.8,11-11.8s11,5.3,11,11.8c0,6.5-4.9,11.7-11,11.7
	C342.1,331.6,337.1,326.4,337.3,320.2 M301.3,328c-0.7-0.5-1.7-0.4-2.3,0.3c-1.9,2.2-4.5,3.2-8,3.2c-5.7,0-10.6-4.3-11.2-10h25.9
	c1,0,1.8-0.8,1.8-1.8c0-4.7-1.9-9.2-5.2-12.6c-3-3.1-7.2-4.9-11.6-4.9c-9.2,0-16.8,7.9-16.8,17.6c-0.2,9.4,7.3,17.2,16.7,17.4
	c0.1,0,0.3,0,0.4,0c5.3,0,9.6-1.9,12.5-5.4c0.6-0.7,0.5-1.8-0.2-2.4c0,0,0,0-0.1-0.1L301.3,328z M290.6,308
	c4.7,0.1,8.9,3.3,10.3,7.8h-20.6C281.7,311.2,285.9,308.1,290.6,308 M616.9,323.5c-0.8-0.5-1.8-0.2-2.3,0.5
	c-2.8,4.8-7.8,7.7-13.4,7.8c-8.8,0-16-7.7-16-17.2c0-9.5,7.2-17.1,16-17.1c5.7,0,10.9,3.1,13.7,8.1c0.5,0.8,1.5,1.1,2.3,0.6
	c0,0,0,0,0,0l2.1-1.1c0.8-0.4,1.2-1.5,0.7-2.3c0,0,0,0,0-0.1c-3.8-6.8-10.9-11-18.7-11c-12,0-21.7,10.3-21.7,22.9
	c0,12.6,9.8,22.9,21.7,22.9c7.5-0.1,14.4-4.1,18.3-10.6c0.5-0.8,0.2-1.8-0.6-2.3c0,0,0,0,0,0L616.9,323.5z"/>
<path class="st1" d="M166.5,352.1h-0.9c-0.3,0-0.6,0.3-0.6,0.6v1.7c0,0.3,0.3,0.6,0.6,0.6c0,0,0,0,0,0h1c0.3,0,0.6-0.3,0.6-0.6
	c0,0,0,0,0,0v-1.7C167.1,352.4,166.8,352.1,166.5,352.1 M230.2,352.1h-1c-0.3,0-0.6,0.3-0.6,0.6v1.7c0,0.3,0.3,0.6,0.6,0.6
	c0,0,0,0,0,0h1c0.3,0,0.6-0.3,0.6-0.6c0,0,0,0,0,0v-1.7C230.8,352.4,230.5,352.1,230.2,352.1 M263.3,352.1h-1
	c-0.3,0-0.6,0.3-0.6,0.6v1.7c0,0.3,0.3,0.6,0.6,0.6c0,0,0,0,0,0h1c0.3,0,0.6-0.3,0.6-0.6c0,0,0,0,0,0v-1.7
	C263.9,352.4,263.6,352.1,263.3,352.1 M350.2,352.1h-1c-0.3,0-0.6,0.3-0.6,0.6v1.7c0,0.3,0.3,0.6,0.6,0.6c0,0,0,0,0,0h1
	c0.3,0,0.6-0.3,0.6-0.6c0,0,0,0,0,0v-1.7C350.8,352.4,350.5,352.1,350.2,352.1 M142.3,352.1h-1c-0.3,0-0.6,0.3-0.6,0.6v11.7
	c0,3-2.4,5.4-5.4,5.4c-3,0-5.4-2.4-5.4-5.4l0,0v-11.7c0-0.3-0.3-0.6-0.6-0.6h-1c-0.3,0-0.6,0.3-0.6,0.6v11.7c-0.1,4,3.1,7.4,7.1,7.5
	c0.2,0,0.3,0,0.5,0c4,0.2,7.4-2.8,7.6-6.8c0-0.2,0-0.5,0-0.7v-11.7C142.9,352.4,142.7,352.1,142.3,352.1 M154,356.5
	c-1.6,0-3.1,0.5-4.3,1.6v-0.6c0-0.3-0.3-0.6-0.6-0.6h-1c-0.3,0-0.6,0.3-0.6,0.6c0,0,0,0,0,0V371c0,0.3,0.3,0.6,0.6,0.6c0,0,0,0,0,0
	h1c0.3,0,0.6-0.3,0.6-0.6v-8.2c0-2.3,1.8-4.2,4.1-4.2c0.1,0,0.1,0,0.2,0c2.6,0,4,1.5,4,4.2v8.2c0,0.3,0.3,0.6,0.6,0.6c0,0,0,0,0,0h1
	c0.3,0,0.6-0.3,0.6-0.6c0,0,0,0,0,0v-8.2C160.1,358.9,157.9,356.5,154,356.5 M166.5,356.8h-0.9c-0.3,0-0.6,0.3-0.6,0.6V371
	c0,0.3,0.3,0.6,0.6,0.6h1c0.3,0,0.6-0.3,0.6-0.6c0,0,0,0,0,0v-13.6C167.1,357.1,166.8,356.8,166.5,356.8 M182.3,356.8h-1.1
	c-0.2,0-0.5,0.2-0.6,0.4l-4.1,10.8l-4.1-10.8c-0.1-0.2-0.3-0.4-0.6-0.4h-1.1c-0.2,0-0.4,0.1-0.5,0.3c-0.1,0.2-0.1,0.4-0.1,0.6
	l5.2,13.6c0.1,0.2,0.3,0.4,0.6,0.4h1.1c0.3,0,0.5-0.2,0.6-0.4l5.2-13.6c0.1-0.2,0-0.4-0.1-0.6C182.6,357,182.5,356.9,182.3,356.8
	 M191.8,356.5c-4.3,0-7.7,3.5-7.7,7.8s3.5,7.7,7.8,7.7l0,0c3.2,0.1,6-1.9,6.9-5c0.1-0.2,0-0.4-0.1-0.5c-0.1-0.2-0.3-0.2-0.5-0.3h-1
	c-0.3,0-0.5,0.2-0.6,0.4c-0.6,2-2.6,3.3-4.7,3.2c-2.8,0-5.1-2.1-5.3-4.9h12c0.3,0,0.6-0.3,0.6-0.6c0-2.1-0.8-4.1-2.3-5.6
	C195.6,357.3,193.7,356.5,191.8,356.5 M186.8,362.6c0.6-2.7,3.4-4.5,6.1-3.8c1.9,0.4,3.4,1.9,3.8,3.8H186.8z M209.9,356.5
	c-1.8-0.3-3.6,0.3-5,1.4v-0.5c0-0.3-0.3-0.6-0.6-0.6h-1c-0.3,0-0.6,0.3-0.6,0.6V371c0,0.3,0.3,0.6,0.6,0.6h1c0.3,0,0.6-0.3,0.6-0.6
	v-8.2c0-1.2,0.4-2.4,1.3-3.2c1-0.8,2.3-1.2,3.5-1c0.2,0,0.3,0,0.5-0.2c0.1-0.1,0.2-0.3,0.2-0.4v-0.9
	C210.4,356.8,210.2,356.6,209.9,356.5 M218.6,362.7c-3.3-0.5-3.9-1-3.9-1.9c0-0.4,0.2-0.8,0.5-1.1c0.9-0.7,2-1.1,3.1-1
	c1.7-0.2,3.4,0.8,4,2.5c0.1,0.2,0.3,0.4,0.6,0.4h1c0.2,0,0.4-0.1,0.5-0.2c0.1-0.1,0.2-0.3,0.1-0.5c-0.6-2.7-2.9-4.3-6.2-4.3
	c-3.8,0-5.7,2.2-5.7,4.3c0.1,3.2,3.4,3.7,5.8,4c3.4,0.5,4.2,1.3,4.2,2.4c0.1,0.5-0.1,1-0.5,1.4c-0.9,0.8-2.1,1.2-3.4,1.1
	c-1.5,0-4.2-0.4-4.7-2.9c-0.1-0.3-0.3-0.5-0.6-0.5h-1c-0.3,0-0.6,0.3-0.6,0.6c0,0,0,0.1,0,0.1c0.5,3,3.1,4.8,6.9,4.8
	c1.8,0.1,3.6-0.5,4.9-1.8c0.8-0.8,1.2-1.9,1.1-3C224.6,363.5,220.7,363,218.6,362.7 M230.1,356.8h-1c-0.3,0-0.6,0.3-0.6,0.6V371
	c0,0.3,0.3,0.6,0.6,0.6c0,0,0,0,0,0h1c0.3,0,0.6-0.3,0.6-0.6v-13.6C230.7,357.1,230.5,356.8,230.1,356.8 M241,356.8h-3.1v-2.3
	c0-0.3-0.3-0.6-0.6-0.6h-1c-0.3,0-0.6,0.3-0.6,0.6v2.3h-1.2c-0.3,0-0.6,0.3-0.6,0.6v1c0,0.3,0.3,0.6,0.6,0.6h1.2v7.3
	c-0.1,1.6,0.5,3.1,1.6,4.2c0.9,0.8,2,1.2,3.1,1.1c0.2,0,0.4,0,0.6,0c0.3,0,0.6-0.3,0.5-0.6v-0.9c0-0.2-0.1-0.3-0.2-0.4
	c-0.1-0.1-0.3-0.2-0.4-0.2c-0.8,0.1-1.6-0.1-2.2-0.7c-0.6-0.7-0.9-1.6-0.8-2.5V359h3.1c0.3,0,0.6-0.3,0.6-0.6v-1
	C241.6,357.1,241.4,356.8,241,356.8 M256.9,368.8v-7.7c0-2.9-2.2-4.6-6-4.6c-3.3,0-5.6,1.6-6.3,4.3c0,0.2,0,0.4,0.1,0.5
	c0.1,0.1,0.3,0.2,0.5,0.2h1c0.3,0,0.5-0.2,0.6-0.4c0.6-2,2.6-2.4,4.1-2.4c1.7,0,3.8,0.4,3.8,2.5c0,1.1-1.4,1.4-4.5,1.7
	c-1.9,0.2-6.3,0.6-6.3,4.7c0,3,2.9,4.4,5.5,4.4c1.9,0.1,3.8-0.5,5.3-1.7c0.1,0.4,0.2,0.7,0.3,1.1c0.1,0.2,0.3,0.3,0.5,0.3h1
	c0.2,0,0.4-0.1,0.5-0.3c0.1-0.2,0.1-0.4,0-0.6C257,370.1,256.9,369.4,256.9,368.8 M249.4,369.6c0,0-3.3,0-3.3-2.3
	c0-1,0.3-2.2,4.3-2.5c1.5,0,2.9-0.3,4.3-0.8v2C254.7,368.5,252,369.6,249.4,369.6 M516.3,368.8v-7.7c0-2.9-2.2-4.6-6-4.6
	c-3.3,0-5.6,1.6-6.3,4.3c0,0.2,0,0.4,0.1,0.5c0.1,0.1,0.3,0.2,0.5,0.2h1c0.3,0,0.5-0.2,0.6-0.4c0.6-2,2.6-2.4,4.1-2.4
	c1.7,0,3.8,0.4,3.8,2.5c0,1.1-1.4,1.4-4.5,1.7c-1.9,0.2-6.3,0.6-6.3,4.7c0,3,2.9,4.4,5.5,4.4c1.9,0.1,3.8-0.5,5.4-1.7
	c0.1,0.4,0.2,0.7,0.3,1.1c0.1,0.2,0.3,0.3,0.5,0.3h1c0.2,0,0.4-0.1,0.5-0.3c0.1-0.2,0.1-0.4,0.1-0.6
	C516.4,370.1,516.3,369.4,516.3,368.8 M508.9,369.6c0,0-3.3,0-3.3-2.3c0-1,0.3-2.2,4.3-2.5c1.5,0,2.9-0.3,4.3-0.8v2
	C514.1,368.5,511.5,369.6,508.9,369.6 M263.3,356.8h-1c-0.3,0-0.6,0.3-0.6,0.6V371c0,0.3,0.3,0.6,0.6,0.6h1c0.3,0,0.6-0.3,0.6-0.6
	v-13.6C263.9,357.1,263.6,356.8,263.3,356.8 M276,356.5c-1.8-0.3-3.6,0.3-5,1.4v-0.5c0-0.3-0.3-0.6-0.6-0.6h-1
	c-0.3,0-0.6,0.3-0.6,0.6V371c0,0.3,0.3,0.6,0.6,0.6c0,0,0,0,0,0h1c0.3,0,0.6-0.3,0.6-0.6v-8.2c0-1.2,0.5-2.4,1.3-3.2
	c1-0.8,2.3-1.2,3.5-1c0.2,0,0.3,0,0.5-0.2c0.1-0.1,0.2-0.3,0.2-0.4v-0.9C276.5,356.8,276.3,356.6,276,356.5 M307.5,352.1h-1.1
	c-0.2,0-0.5,0.1-0.6,0.4l-7,15.9l-7-15.9c-0.1-0.2-0.3-0.4-0.5-0.4h-1c-0.3,0-0.6,0.3-0.6,0.6V371c0,0.3,0.3,0.6,0.6,0.6h1
	c0.3,0,0.6-0.3,0.6-0.6c0,0,0,0,0,0v-13.1l5.8,13.4c0.1,0.2,0.3,0.4,0.6,0.4h1.1c0.2,0,0.5-0.1,0.6-0.4l5.9-13.4V371
	c0,0.3,0.3,0.6,0.6,0.6c0,0,0,0,0,0h1c0.3,0,0.6-0.3,0.6-0.6v-18.3C308.1,352.4,307.8,352.1,307.5,352.1 M319.2,356.5
	c-4.3,0-7.7,3.5-7.7,7.8c0,4.3,3.5,7.7,7.8,7.7c3.2,0.1,6-1.9,6.9-5c0.1-0.2,0-0.4-0.1-0.5c-0.1-0.2-0.3-0.3-0.5-0.3h-1
	c-0.3,0-0.5,0.2-0.6,0.4c-0.6,2-2.6,3.3-4.7,3.2c-2.8,0-5.1-2.1-5.3-4.9h12c0.3,0,0.6-0.3,0.6-0.6c0-2.1-0.8-4.1-2.3-5.6
	C323,357.3,321.2,356.5,319.2,356.5 M314.2,362.6c0.6-2.7,3.3-4.5,6.1-3.8c1.9,0.4,3.4,1.9,3.8,3.8H314.2z M409.3,356.5
	c-4.3,0-7.7,3.5-7.7,7.8c0,4.3,3.5,7.7,7.8,7.7c3.2,0.1,6-1.9,6.9-5c0.1-0.2,0-0.4-0.1-0.5c-0.1-0.2-0.3-0.3-0.5-0.3h-1
	c-0.3,0-0.5,0.2-0.6,0.4c-0.6,2-2.6,3.3-4.7,3.2c-2.8,0-5.1-2.1-5.3-4.9h12c0.3,0,0.6-0.3,0.6-0.6c0-2.1-0.8-4.1-2.3-5.6
	C413,357.3,411.2,356.5,409.3,356.5 M404.3,362.6c0.6-2.7,3.4-4.5,6.1-3.8c1.9,0.4,3.4,1.9,3.8,3.8H404.3z M343.1,350.8h-1
	c-0.3,0-0.6,0.3-0.6,0.6c0,0,0,0,0,0v7.4c-1.3-1.5-3.2-2.3-5.2-2.3c-4.3,0.2-7.5,3.9-7.3,8.2c0.2,3.9,3.4,7.1,7.3,7.3
	c2,0,3.9-0.8,5.2-2.3v1.4c0,0.3,0.3,0.6,0.6,0.6h1c0.3,0,0.6-0.3,0.6-0.6v-19.7C343.7,351,343.5,350.8,343.1,350.8
	C343.1,350.8,343.1,350.8,343.1,350.8 M336.3,369.8c-3.1,0.2-5.7-2.1-5.9-5.2c-0.2-3.1,2.1-5.7,5.2-5.9c3.1-0.2,5.7,2.1,5.9,5.2
	c0,0.1,0,0.3,0,0.4C341.6,367.2,339.3,369.7,336.3,369.8 M350.2,356.8h-1c-0.3,0-0.6,0.3-0.6,0.6V371c0,0.3,0.3,0.6,0.6,0.6
	c0,0,0,0,0,0h1c0.3,0,0.6-0.3,0.6-0.6v-13.6C350.8,357.1,350.5,356.8,350.2,356.8 M361.4,362.7c-3.3-0.5-3.9-1-3.9-1.9
	c0-0.4,0.2-0.8,0.5-1.1c0.9-0.7,2-1.1,3.1-1c1.7-0.2,3.4,0.8,4,2.5c0.1,0.3,0.3,0.4,0.6,0.4h1c0.2,0,0.4-0.1,0.5-0.2
	c0.1-0.1,0.2-0.3,0.1-0.5c-0.6-2.7-2.9-4.3-6.2-4.3c-3.8,0-5.7,2.2-5.7,4.3c0,3.2,3.4,3.7,5.8,4c3.4,0.5,4.2,1.3,4.2,2.4
	c0,0.5-0.1,1-0.5,1.4c-0.9,0.8-2.1,1.2-3.4,1.1c-1.5,0-4.2-0.4-4.7-2.9c-0.1-0.3-0.3-0.5-0.6-0.5h-1c-0.2,0-0.3,0.1-0.5,0.2
	c-0.1,0.1-0.2,0.3-0.1,0.5c0.5,3,3.1,4.8,6.9,4.8c1.8,0.1,3.6-0.5,4.9-1.8c0.8-0.8,1.2-1.9,1.1-3C367.3,363.5,363.5,363,361.4,362.7
	 M392.4,356.5c-1.6,0-3.1,0.5-4.3,1.6v-6.7c0-0.3-0.3-0.6-0.6-0.6h-1c-0.3,0-0.6,0.3-0.6,0.6V371c0,0.3,0.3,0.6,0.6,0.6c0,0,0,0,0,0
	h1c0.3,0,0.6-0.3,0.6-0.6c0,0,0,0,0,0v-8.2c0-2.3,1.8-4.2,4.1-4.2c0.1,0,0.1,0,0.2,0c2.6,0,4,1.5,4,4.2v8.2c0,0.3,0.3,0.6,0.6,0.6
	c0,0,0,0,0,0h1c0.3,0,0.6-0.3,0.6-0.6c0,0,0,0,0,0v-8.2C398.6,358.9,396.2,356.5,392.4,356.5 M455.9,356.5c-4.3,0.1-7.7,3.6-7.6,7.8
	c0.1,4.3,3.6,7.7,7.8,7.6c3.2,0.1,6-1.9,6.9-5c0.1-0.2,0-0.4-0.1-0.5c-0.1-0.2-0.3-0.3-0.5-0.3h-1c-0.3,0-0.5,0.2-0.6,0.4
	c-0.6,2-2.6,3.3-4.7,3.2c-2.8,0-5.1-2.1-5.3-4.9h12c0.3,0,0.6-0.3,0.6-0.6c0,0,0,0,0,0c0-2.1-0.8-4.1-2.3-5.6
	C459.7,357.3,457.9,356.5,455.9,356.5 M451,362.6c0.6-2.3,2.6-3.9,4.9-3.9c2.4,0.1,4.4,1.7,5,3.9L451,362.6z M473.3,356.5
	c-1.6,0-3.1,0.5-4.3,1.6v-0.6c0-0.3-0.3-0.6-0.6-0.6h-1c-0.3,0-0.6,0.3-0.6,0.6V371c0,0.3,0.3,0.6,0.6,0.6c0,0,0,0,0,0h1
	c0.3,0,0.6-0.3,0.6-0.6v-8.2c0-2.3,1.8-4.2,4.1-4.2c0.1,0,0.1,0,0.2,0c2.6,0,4,1.5,4,4.2v8.2c0,0.3,0.3,0.6,0.6,0.6c0,0,0,0,0,0h1
	c0.3,0,0.6-0.3,0.6-0.6v-8.2C479.4,358.9,477.1,356.5,473.3,356.5 M489.5,356.8h-3.1v-2.3c0-0.3-0.3-0.6-0.6-0.6h-1
	c-0.3,0-0.6,0.3-0.6,0.6v2.3H483c-0.3,0-0.6,0.3-0.6,0.6v1c0,0.3,0.3,0.6,0.6,0.6h1.2v7.3c-0.1,1.6,0.5,3.1,1.6,4.2
	c0.9,0.8,2,1.2,3.1,1.1c0.2,0,0.4,0,0.6,0c0.3,0,0.6-0.3,0.5-0.6v-0.9c0-0.2-0.1-0.3-0.2-0.4c-0.1-0.1-0.3-0.2-0.4-0.2
	c-0.8,0.1-1.6-0.1-2.2-0.7c-0.6-0.7-0.9-1.6-0.8-2.5V359h3.1c0.3,0,0.6-0.3,0.6-0.6v-1C490.1,357.1,489.8,356.8,489.5,356.8
	 M501,356.5c-1.8-0.3-3.6,0.3-5,1.4v-0.5c0-0.3-0.3-0.6-0.6-0.6h-1c-0.3,0-0.6,0.3-0.6,0.6V371c0,0.3,0.3,0.6,0.6,0.6h1
	c0.3,0,0.6-0.3,0.6-0.6v-8.2c0-1.2,0.4-2.4,1.3-3.2c1-0.8,2.3-1.2,3.5-1c0.2,0,0.3,0,0.5-0.2c0.1-0.1,0.2-0.3,0.2-0.4v-0.9
	C501.5,356.8,501.3,356.6,501,356.5 M445.4,367.6c-0.2-0.2-0.6-0.2-0.8,0c0,0,0,0,0,0c-1.3,1.3-3.1,2.1-5,2.1
	c-4.4-0.5-7.6-4.4-7.1-8.8c0.4-3.7,3.4-6.7,7.1-7.1c2,0,3.9,0.8,5.3,2.3c0.2,0.2,0.6,0.2,0.8,0c0,0,0,0,0,0l0.7-0.7
	c0.2-0.2,0.2-0.6,0-0.8c-1.8-1.9-4.3-3-6.9-3c-5.6,0-10.1,4.5-10.1,10.2c0,5.6,4.5,10.1,10.1,10.1c2.5,0,4.8-1,6.6-2.8
	c0.2-0.2,0.2-0.6,0-0.8c0,0,0,0,0,0L445.4,367.6z M382.2,368c-0.2-0.2-0.6-0.2-0.8,0c0,0,0,0,0,0c-1,1.1-2.4,1.8-3.9,1.8
	c-3.1-0.2-5.4-2.8-5.2-5.9c0.2-2.8,2.4-5,5.2-5.2c1.5,0,2.9,0.6,3.8,1.8c0.2,0.2,0.6,0.2,0.8,0c0,0,0,0,0,0l0.8-0.8
	c0.2-0.2,0.2-0.5,0-0.8c-1.4-1.6-3.4-2.5-5.5-2.5c-4.3,0.2-7.5,3.9-7.3,8.2c0.2,3.9,3.4,7.1,7.3,7.3c2.1,0,4.1-0.9,5.5-2.5
	c0.2-0.2,0.2-0.5,0-0.8L382.2,368z"/>
<path class="st2" d="M42.1,286.2v35.6c0,13.6,2.4,19.9,6.9,23.6c2.9,2.2,6.2,3.8,9.6,4.9v-31.8C58.5,305.8,52.4,293.8,42.1,286.2
	 M80.3,286.2v35.6c0,13.6-2.4,19.9-6.9,23.6c-2.9,2.2-6.2,3.8-9.7,4.9v-31.8C63.9,305.8,70,293.8,80.3,286.2"/>
<path class="st1" d="M61.2,372c22.6,0,40.9-18,40.9-41.6v-52.1c-5.8,0.3-11.4,1.9-16.5,4.6v43c0,28.6-20.6,29.5-24.4,29.5
	s-24.4-1-24.4-29.5v-43c-5.1-2.7-10.7-4.3-16.5-4.6v52.1C20.2,354,38.6,372,61.2,372"/>
<path class="st0" d="M61.2,299c2.9-5.8,7-11,12-15.1c-3-5.3-7.1-9.8-12-13.3c-4.9,3.5-9.1,8-12,13.3C54.2,288,58.3,293.2,61.2,299"
	/>
</svg>